ISO-10303-21;
HEADER;
/* Generated by software containing ST-Developer
 * from STEP Tools, Inc. (www.steptools.com) 
 */

FILE_DESCRIPTION(
/* description */ (''),
/* implementation_level */ '2;1');

FILE_NAME(
/* name */ 'GNSSBuild.step',
/* time_stamp */ '2025-06-22T13:07:07-04:00',
/* author */ (''),
/* organization */ (''),
/* preprocessor_version */ 'ST-DEVELOPER v20.1',
/* originating_system */ 'Autodesk Translation Framework v14.10.0.0',
/* authorisation */ '');

FILE_SCHEMA (('AUTOMOTIVE_DESIGN { 1 0 10303 214 3 1 1 }'));
ENDSEC;

DATA;
#10=MECHANICAL_DESIGN_GEOMETRIC_PRESENTATION_REPRESENTATION('',(#29,#30,
#31),#1179);
#11=TOROIDAL_SURFACE('',#716,3.,1.);
#12=FACE_BOUND('',#139,.T.);
#13=FACE_BOUND('',#149,.T.);
#14=FACE_BOUND('',#165,.T.);
#15=FACE_BOUND('',#168,.T.);
#16=FACE_BOUND('',#170,.T.);
#17=ITEM_DEFINED_TRANSFORMATION($,$,#662,#668);
#18=ITEM_DEFINED_TRANSFORMATION($,$,#661,#728);
#19=(
REPRESENTATION_RELATIONSHIP($,$,#1194,#1193)
REPRESENTATION_RELATIONSHIP_WITH_TRANSFORMATION(#17)
SHAPE_REPRESENTATION_RELATIONSHIP()
);
#20=(
REPRESENTATION_RELATIONSHIP($,$,#1193,#1192)
REPRESENTATION_RELATIONSHIP_WITH_TRANSFORMATION(#18)
SHAPE_REPRESENTATION_RELATIONSHIP()
);
#21=CONTEXT_DEPENDENT_SHAPE_REPRESENTATION(#19,#1190);
#22=CONTEXT_DEPENDENT_SHAPE_REPRESENTATION(#20,#1191);
#23=NEXT_ASSEMBLY_USAGE_OCCURRENCE('WeatherMag:1','WeatherMag:1',
'WeatherMag:1',#1197,#1198,'WeatherMag:1');
#24=NEXT_ASSEMBLY_USAGE_OCCURRENCE('Case v39:1','Case v39:1',
'Case v39:1',#1196,#1197,'Case v39:1');
#25=SHAPE_REPRESENTATION_RELATIONSHIP('SRR','None',#1194,#27);
#26=SHAPE_REPRESENTATION_RELATIONSHIP('SRR','None',#1192,#28);
#27=ADVANCED_BREP_SHAPE_REPRESENTATION('',(#32),#1178);
#28=ADVANCED_BREP_SHAPE_REPRESENTATION('',(#33,#34),#1176);
#29=STYLED_ITEM('',(#1211),#32);
#30=STYLED_ITEM('',(#1211),#33);
#31=STYLED_ITEM('',(#1211),#34);
#32=MANIFOLD_SOLID_BREP('WeatherMag',#645);
#33=MANIFOLD_SOLID_BREP('Body1',#646);
#34=MANIFOLD_SOLID_BREP('Body3',#647);
#35=PLANE('',#666);
#36=PLANE('',#667);
#37=PLANE('',#669);
#38=PLANE('',#674);
#39=PLANE('',#677);
#40=PLANE('',#682);
#41=PLANE('',#685);
#42=PLANE('',#686);
#43=PLANE('',#687);
#44=PLANE('',#688);
#45=PLANE('',#689);
#46=PLANE('',#691);
#47=PLANE('',#693);
#48=PLANE('',#695);
#49=PLANE('',#697);
#50=PLANE('',#700);
#51=PLANE('',#703);
#52=PLANE('',#707);
#53=PLANE('',#708);
#54=PLANE('',#709);
#55=PLANE('',#713);
#56=PLANE('',#719);
#57=PLANE('',#721);
#58=PLANE('',#725);
#59=PLANE('',#727);
#60=CIRCLE('',#664,2.87499999999999);
#61=CIRCLE('',#665,2.87499999999999);
#62=CIRCLE('',#670,21.);
#63=CIRCLE('',#671,21.);
#64=CIRCLE('',#672,11.);
#65=CIRCLE('',#673,11.);
#66=CIRCLE('',#676,21.);
#67=CIRCLE('',#679,11.);
#68=CIRCLE('',#681,21.);
#69=CIRCLE('',#684,11.);
#70=CIRCLE('',#690,21.);
#71=CIRCLE('',#692,21.);
#72=CIRCLE('',#694,21.);
#73=CIRCLE('',#696,21.);
#74=CIRCLE('',#698,18.);
#75=CIRCLE('',#699,18.);
#76=CIRCLE('',#701,18.);
#77=CIRCLE('',#702,18.);
#78=CIRCLE('',#705,18.);
#79=CIRCLE('',#706,18.);
#80=CIRCLE('',#711,21.);
#81=CIRCLE('',#712,21.);
#82=CIRCLE('',#714,21.);
#83=CIRCLE('',#715,3.);
#84=CIRCLE('',#717,3.);
#85=CIRCLE('',#718,1.);
#86=CIRCLE('',#720,18.);
#87=CIRCLE('',#722,21.);
#88=CIRCLE('',#723,18.);
#89=CYLINDRICAL_SURFACE('',#663,2.87499999999999);
#90=CYLINDRICAL_SURFACE('',#675,21.);
#91=CYLINDRICAL_SURFACE('',#678,11.);
#92=CYLINDRICAL_SURFACE('',#680,21.);
#93=CYLINDRICAL_SURFACE('',#683,11.);
#94=CYLINDRICAL_SURFACE('',#704,18.);
#95=CYLINDRICAL_SURFACE('',#710,21.);
#96=CYLINDRICAL_SURFACE('',#724,18.);
#97=CYLINDRICAL_SURFACE('',#726,21.);
#98=FACE_OUTER_BOUND('',#134,.T.);
#99=FACE_OUTER_BOUND('',#135,.T.);
#100=FACE_OUTER_BOUND('',#136,.T.);
#101=FACE_OUTER_BOUND('',#137,.T.);
#102=FACE_OUTER_BOUND('',#138,.T.);
#103=FACE_OUTER_BOUND('',#140,.T.);
#104=FACE_OUTER_BOUND('',#141,.T.);
#105=FACE_OUTER_BOUND('',#142,.T.);
#106=FACE_OUTER_BOUND('',#143,.T.);
#107=FACE_OUTER_BOUND('',#144,.T.);
#108=FACE_OUTER_BOUND('',#145,.T.);
#109=FACE_OUTER_BOUND('',#146,.T.);
#110=FACE_OUTER_BOUND('',#147,.T.);
#111=FACE_OUTER_BOUND('',#148,.T.);
#112=FACE_OUTER_BOUND('',#150,.T.);
#113=FACE_OUTER_BOUND('',#151,.T.);
#114=FACE_OUTER_BOUND('',#152,.T.);
#115=FACE_OUTER_BOUND('',#153,.T.);
#116=FACE_OUTER_BOUND('',#154,.T.);
#117=FACE_OUTER_BOUND('',#155,.T.);
#118=FACE_OUTER_BOUND('',#156,.T.);
#119=FACE_OUTER_BOUND('',#157,.T.);
#120=FACE_OUTER_BOUND('',#158,.T.);
#121=FACE_OUTER_BOUND('',#159,.T.);
#122=FACE_OUTER_BOUND('',#160,.T.);
#123=FACE_OUTER_BOUND('',#161,.T.);
#124=FACE_OUTER_BOUND('',#162,.T.);
#125=FACE_OUTER_BOUND('',#163,.T.);
#126=FACE_OUTER_BOUND('',#164,.T.);
#127=FACE_OUTER_BOUND('',#166,.T.);
#128=FACE_OUTER_BOUND('',#167,.T.);
#129=FACE_OUTER_BOUND('',#169,.T.);
#130=FACE_OUTER_BOUND('',#171,.T.);
#131=FACE_OUTER_BOUND('',#172,.T.);
#132=FACE_OUTER_BOUND('',#173,.T.);
#133=FACE_OUTER_BOUND('',#174,.T.);
#134=EDGE_LOOP('',(#434,#435,#436,#437));
#135=EDGE_LOOP('',(#438,#439,#440,#441));
#136=EDGE_LOOP('',(#442,#443));
#137=EDGE_LOOP('',(#444,#445));
#138=EDGE_LOOP('',(#446,#447,#448,#449));
#139=EDGE_LOOP('',(#450,#451,#452,#453));
#140=EDGE_LOOP('',(#454,#455,#456,#457));
#141=EDGE_LOOP('',(#458,#459,#460,#461));
#142=EDGE_LOOP('',(#462,#463,#464,#465));
#143=EDGE_LOOP('',(#466,#467,#468,#469));
#144=EDGE_LOOP('',(#470,#471,#472,#473));
#145=EDGE_LOOP('',(#474,#475,#476,#477));
#146=EDGE_LOOP('',(#478,#479,#480,#481));
#147=EDGE_LOOP('',(#482,#483,#484,#485));
#148=EDGE_LOOP('',(#486,#487,#488,#489));
#149=EDGE_LOOP('',(#490,#491,#492,#493));
#150=EDGE_LOOP('',(#494,#495,#496,#497));
#151=EDGE_LOOP('',(#498,#499,#500,#501));
#152=EDGE_LOOP('',(#502,#503,#504));
#153=EDGE_LOOP('',(#505,#506,#507));
#154=EDGE_LOOP('',(#508,#509,#510));
#155=EDGE_LOOP('',(#511,#512,#513));
#156=EDGE_LOOP('',(#514,#515,#516,#517));
#157=EDGE_LOOP('',(#518,#519,#520,#521));
#158=EDGE_LOOP('',(#522,#523,#524,#525));
#159=EDGE_LOOP('',(#526,#527,#528,#529,#530,#531,#532,#533));
#160=EDGE_LOOP('',(#534,#535,#536,#537));
#161=EDGE_LOOP('',(#538,#539,#540,#541));
#162=EDGE_LOOP('',(#542,#543,#544,#545,#546,#547,#548,#549,#550,#551,#552,
#553));
#163=EDGE_LOOP('',(#554,#555,#556,#557,#558,#559,#560,#561));
#164=EDGE_LOOP('',(#562,#563,#564,#565));
#165=EDGE_LOOP('',(#566));
#166=EDGE_LOOP('',(#567,#568,#569,#570));
#167=EDGE_LOOP('',(#571,#572,#573,#574));
#168=EDGE_LOOP('',(#575));
#169=EDGE_LOOP('',(#576,#577,#578,#579));
#170=EDGE_LOOP('',(#580,#581,#582,#583));
#171=EDGE_LOOP('',(#584,#585,#586,#587,#588,#589,#590,#591));
#172=EDGE_LOOP('',(#592,#593,#594,#595));
#173=EDGE_LOOP('',(#596,#597,#598,#599,#600,#601,#602,#603));
#174=EDGE_LOOP('',(#604,#605,#606,#607));
#175=LINE('',#976,#231);
#176=LINE('',#997,#232);
#177=LINE('',#1007,#233);
#178=LINE('',#1011,#234);
#179=LINE('',#1015,#235);
#180=LINE('',#1019,#236);
#181=LINE('',#1024,#237);
#182=LINE('',#1025,#238);
#183=LINE('',#1026,#239);
#184=LINE('',#1030,#240);
#185=LINE('',#1034,#241);
#186=LINE('',#1035,#242);
#187=LINE('',#1036,#243);
#188=LINE('',#1040,#244);
#189=LINE('',#1044,#245);
#190=LINE('',#1046,#246);
#191=LINE('',#1050,#247);
#192=LINE('',#1052,#248);
#193=LINE('',#1057,#249);
#194=LINE('',#1059,#250);
#195=LINE('',#1061,#251);
#196=LINE('',#1062,#252);
#197=LINE('',#1066,#253);
#198=LINE('',#1068,#254);
#199=LINE('',#1070,#255);
#200=LINE('',#1071,#256);
#201=LINE('',#1077,#257);
#202=LINE('',#1078,#258);
#203=LINE('',#1082,#259);
#204=LINE('',#1086,#260);
#205=LINE('',#1092,#261);
#206=LINE('',#1093,#262);
#207=LINE('',#1098,#263);
#208=LINE('',#1105,#264);
#209=LINE('',#1107,#265);
#210=LINE('',#1108,#266);
#211=LINE('',#1111,#267);
#212=LINE('',#1115,#268);
#213=LINE('',#1118,#269);
#214=LINE('',#1121,#270);
#215=LINE('',#1122,#271);
#216=LINE('',#1125,#272);
#217=LINE('',#1126,#273);
#218=LINE('',#1129,#274);
#219=LINE('',#1131,#275);
#220=LINE('',#1132,#276);
#221=LINE('',#1134,#277);
#222=LINE('',#1136,#278);
#223=LINE('',#1137,#279);
#224=LINE('',#1142,#280);
#225=LINE('',#1147,#281);
#226=LINE('',#1157,#282);
#227=LINE('',#1160,#283);
#228=LINE('',#1163,#284);
#229=LINE('',#1166,#285);
#230=LINE('',#1169,#286);
#231=VECTOR('',#735,10.);
#232=VECTOR('',#736,10.);
#233=VECTOR('',#751,10.);
#234=VECTOR('',#754,10.);
#235=VECTOR('',#757,10.);
#236=VECTOR('',#760,10.);
#237=VECTOR('',#765,10.);
#238=VECTOR('',#766,10.);
#239=VECTOR('',#767,10.);
#240=VECTOR('',#772,10.);
#241=VECTOR('',#775,10.);
#242=VECTOR('',#776,10.);
#243=VECTOR('',#777,10.);
#244=VECTOR('',#782,10.);
#245=VECTOR('',#787,10.);
#246=VECTOR('',#790,10.);
#247=VECTOR('',#795,10.);
#248=VECTOR('',#798,10.);
#249=VECTOR('',#803,10.);
#250=VECTOR('',#804,10.);
#251=VECTOR('',#805,10.);
#252=VECTOR('',#806,10.);
#253=VECTOR('',#809,10.);
#254=VECTOR('',#810,10.);
#255=VECTOR('',#811,10.);
#256=VECTOR('',#812,10.);
#257=VECTOR('',#817,10.);
#258=VECTOR('',#818,10.);
#259=VECTOR('',#823,10.);
#260=VECTOR('',#828,10.);
#261=VECTOR('',#833,10.);
#262=VECTOR('',#834,10.);
#263=VECTOR('',#839,10.);
#264=VECTOR('',#848,10.);
#265=VECTOR('',#851,10.);
#266=VECTOR('',#852,10.);
#267=VECTOR('',#855,10.);
#268=VECTOR('',#858,10.);
#269=VECTOR('',#861,10.);
#270=VECTOR('',#864,10.);
#271=VECTOR('',#865,10.);
#272=VECTOR('',#868,10.);
#273=VECTOR('',#869,10.);
#274=VECTOR('',#872,10.);
#275=VECTOR('',#873,10.);
#276=VECTOR('',#874,10.);
#277=VECTOR('',#875,10.);
#278=VECTOR('',#876,10.);
#279=VECTOR('',#877,10.);
#280=VECTOR('',#882,10.);
#281=VECTOR('',#889,10.);
#282=VECTOR('',#902,10.);
#283=VECTOR('',#905,10.);
#284=VECTOR('',#908,10.);
#285=VECTOR('',#913,10.);
#286=VECTOR('',#918,10.);
#287=B_SPLINE_CURVE_WITH_KNOTS('',3,(#956,#957,#958,#959,#960,#961,#962,
#963,#964,#965,#966,#967,#968,#969,#970,#971,#972,#973,#974),
 .UNSPECIFIED.,.F.,.F.,(4,3,3,3,3,3,4),(-0.674148941126013,-0.561808030136118,
-0.452243805830242,-0.338029746243469,-0.226486077956547,-0.114050956110847,
0.),.UNSPECIFIED.);
#288=B_SPLINE_CURVE_WITH_KNOTS('',3,(#978,#979,#980,#981,#982,#983,#984,
#985,#986,#987,#988,#989,#990,#991,#992,#993,#994,#995,#996),
 .UNSPECIFIED.,.F.,.F.,(4,3,3,3,3,3,4),(0.,0.114050956110847,0.226486077956547,
0.338029746243469,0.452243805830242,0.561808030136118,0.674148941126013),
 .UNSPECIFIED.);
#289=VERTEX_POINT('',#954);
#290=VERTEX_POINT('',#955);
#291=VERTEX_POINT('',#975);
#292=VERTEX_POINT('',#977);
#293=VERTEX_POINT('',#1005);
#294=VERTEX_POINT('',#1006);
#295=VERTEX_POINT('',#1008);
#296=VERTEX_POINT('',#1010);
#297=VERTEX_POINT('',#1013);
#298=VERTEX_POINT('',#1014);
#299=VERTEX_POINT('',#1016);
#300=VERTEX_POINT('',#1018);
#301=VERTEX_POINT('',#1022);
#302=VERTEX_POINT('',#1023);
#303=VERTEX_POINT('',#1028);
#304=VERTEX_POINT('',#1032);
#305=VERTEX_POINT('',#1033);
#306=VERTEX_POINT('',#1038);
#307=VERTEX_POINT('',#1042);
#308=VERTEX_POINT('',#1048);
#309=VERTEX_POINT('',#1055);
#310=VERTEX_POINT('',#1056);
#311=VERTEX_POINT('',#1058);
#312=VERTEX_POINT('',#1060);
#313=VERTEX_POINT('',#1064);
#314=VERTEX_POINT('',#1065);
#315=VERTEX_POINT('',#1067);
#316=VERTEX_POINT('',#1069);
#317=VERTEX_POINT('',#1073);
#318=VERTEX_POINT('',#1074);
#319=VERTEX_POINT('',#1076);
#320=VERTEX_POINT('',#1080);
#321=VERTEX_POINT('',#1084);
#322=VERTEX_POINT('',#1088);
#323=VERTEX_POINT('',#1089);
#324=VERTEX_POINT('',#1091);
#325=VERTEX_POINT('',#1095);
#326=VERTEX_POINT('',#1097);
#327=VERTEX_POINT('',#1101);
#328=VERTEX_POINT('',#1103);
#329=VERTEX_POINT('',#1110);
#330=VERTEX_POINT('',#1112);
#331=VERTEX_POINT('',#1114);
#332=VERTEX_POINT('',#1116);
#333=VERTEX_POINT('',#1120);
#334=VERTEX_POINT('',#1124);
#335=VERTEX_POINT('',#1128);
#336=VERTEX_POINT('',#1130);
#337=VERTEX_POINT('',#1133);
#338=VERTEX_POINT('',#1135);
#339=VERTEX_POINT('',#1139);
#340=VERTEX_POINT('',#1141);
#341=VERTEX_POINT('',#1145);
#342=VERTEX_POINT('',#1148);
#343=VERTEX_POINT('',#1151);
#344=VERTEX_POINT('',#1155);
#345=VERTEX_POINT('',#1159);
#346=VERTEX_POINT('',#1162);
#347=EDGE_CURVE('',#289,#290,#287,.T.);
#348=EDGE_CURVE('',#289,#291,#175,.T.);
#349=EDGE_CURVE('',#292,#291,#288,.T.);
#350=EDGE_CURVE('',#290,#292,#176,.T.);
#351=EDGE_CURVE('',#289,#290,#60,.T.);
#352=EDGE_CURVE('',#291,#292,#61,.T.);
#353=EDGE_CURVE('',#293,#294,#177,.T.);
#354=EDGE_CURVE('',#294,#295,#62,.T.);
#355=EDGE_CURVE('',#295,#296,#178,.T.);
#356=EDGE_CURVE('',#296,#293,#63,.T.);
#357=EDGE_CURVE('',#297,#298,#179,.T.);
#358=EDGE_CURVE('',#298,#299,#64,.T.);
#359=EDGE_CURVE('',#299,#300,#180,.T.);
#360=EDGE_CURVE('',#300,#297,#65,.T.);
#361=EDGE_CURVE('',#301,#302,#181,.T.);
#362=EDGE_CURVE('',#301,#294,#182,.T.);
#363=EDGE_CURVE('',#293,#302,#183,.T.);
#364=EDGE_CURVE('',#303,#301,#66,.T.);
#365=EDGE_CURVE('',#295,#303,#184,.T.);
#366=EDGE_CURVE('',#304,#305,#185,.T.);
#367=EDGE_CURVE('',#304,#298,#186,.T.);
#368=EDGE_CURVE('',#297,#305,#187,.T.);
#369=EDGE_CURVE('',#306,#304,#67,.T.);
#370=EDGE_CURVE('',#299,#306,#188,.T.);
#371=EDGE_CURVE('',#302,#307,#68,.T.);
#372=EDGE_CURVE('',#296,#307,#189,.T.);
#373=EDGE_CURVE('',#307,#303,#190,.T.);
#374=EDGE_CURVE('',#305,#308,#69,.T.);
#375=EDGE_CURVE('',#300,#308,#191,.T.);
#376=EDGE_CURVE('',#308,#306,#192,.T.);
#377=EDGE_CURVE('',#309,#310,#193,.T.);
#378=EDGE_CURVE('',#309,#311,#194,.T.);
#379=EDGE_CURVE('',#312,#311,#195,.T.);
#380=EDGE_CURVE('',#312,#310,#196,.T.);
#381=EDGE_CURVE('',#313,#314,#197,.T.);
#382=EDGE_CURVE('',#315,#313,#198,.T.);
#383=EDGE_CURVE('',#315,#316,#199,.T.);
#384=EDGE_CURVE('',#316,#314,#200,.T.);
#385=EDGE_CURVE('',#317,#318,#70,.T.);
#386=EDGE_CURVE('',#317,#319,#201,.T.);
#387=EDGE_CURVE('',#319,#318,#202,.T.);
#388=EDGE_CURVE('',#314,#320,#71,.T.);
#389=EDGE_CURVE('',#316,#320,#203,.T.);
#390=EDGE_CURVE('',#321,#313,#72,.T.);
#391=EDGE_CURVE('',#321,#315,#204,.T.);
#392=EDGE_CURVE('',#322,#323,#73,.T.);
#393=EDGE_CURVE('',#324,#322,#205,.T.);
#394=EDGE_CURVE('',#324,#323,#206,.T.);
#395=EDGE_CURVE('',#325,#309,#74,.T.);
#396=EDGE_CURVE('',#326,#325,#207,.T.);
#397=EDGE_CURVE('',#311,#326,#75,.T.);
#398=EDGE_CURVE('',#310,#327,#76,.T.);
#399=EDGE_CURVE('',#328,#312,#77,.T.);
#400=EDGE_CURVE('',#327,#328,#208,.T.);
#401=EDGE_CURVE('',#318,#322,#209,.T.);
#402=EDGE_CURVE('',#319,#324,#210,.T.);
#403=EDGE_CURVE('',#326,#329,#211,.T.);
#404=EDGE_CURVE('',#330,#329,#78,.T.);
#405=EDGE_CURVE('',#331,#330,#212,.T.);
#406=EDGE_CURVE('',#331,#332,#79,.F.);
#407=EDGE_CURVE('',#332,#328,#213,.T.);
#408=EDGE_CURVE('',#325,#333,#214,.T.);
#409=EDGE_CURVE('',#329,#333,#215,.T.);
#410=EDGE_CURVE('',#332,#334,#216,.F.);
#411=EDGE_CURVE('',#334,#327,#217,.T.);
#412=EDGE_CURVE('',#335,#317,#218,.T.);
#413=EDGE_CURVE('',#335,#336,#219,.T.);
#414=EDGE_CURVE('',#336,#320,#220,.T.);
#415=EDGE_CURVE('',#321,#337,#221,.T.);
#416=EDGE_CURVE('',#338,#337,#222,.T.);
#417=EDGE_CURVE('',#323,#338,#223,.T.);
#418=EDGE_CURVE('',#339,#338,#80,.T.);
#419=EDGE_CURVE('',#340,#339,#224,.T.);
#420=EDGE_CURVE('',#340,#335,#81,.T.);
#421=EDGE_CURVE('',#337,#341,#82,.T.);
#422=EDGE_CURVE('',#341,#339,#225,.T.);
#423=EDGE_CURVE('',#342,#342,#83,.T.);
#424=EDGE_CURVE('',#343,#343,#84,.T.);
#425=EDGE_CURVE('',#343,#342,#85,.T.);
#426=EDGE_CURVE('',#333,#344,#86,.T.);
#427=EDGE_CURVE('',#344,#330,#226,.T.);
#428=EDGE_CURVE('',#345,#340,#227,.T.);
#429=EDGE_CURVE('',#336,#345,#87,.T.);
#430=EDGE_CURVE('',#346,#331,#228,.F.);
#431=EDGE_CURVE('',#334,#346,#88,.F.);
#432=EDGE_CURVE('',#344,#346,#229,.T.);
#433=EDGE_CURVE('',#341,#345,#230,.T.);
#434=ORIENTED_EDGE('',*,*,#347,.F.);
#435=ORIENTED_EDGE('',*,*,#348,.T.);
#436=ORIENTED_EDGE('',*,*,#349,.F.);
#437=ORIENTED_EDGE('',*,*,#350,.F.);
#438=ORIENTED_EDGE('',*,*,#351,.T.);
#439=ORIENTED_EDGE('',*,*,#350,.T.);
#440=ORIENTED_EDGE('',*,*,#352,.F.);
#441=ORIENTED_EDGE('',*,*,#348,.F.);
#442=ORIENTED_EDGE('',*,*,#352,.T.);
#443=ORIENTED_EDGE('',*,*,#349,.T.);
#444=ORIENTED_EDGE('',*,*,#351,.F.);
#445=ORIENTED_EDGE('',*,*,#347,.T.);
#446=ORIENTED_EDGE('',*,*,#353,.T.);
#447=ORIENTED_EDGE('',*,*,#354,.T.);
#448=ORIENTED_EDGE('',*,*,#355,.T.);
#449=ORIENTED_EDGE('',*,*,#356,.T.);
#450=ORIENTED_EDGE('',*,*,#357,.T.);
#451=ORIENTED_EDGE('',*,*,#358,.T.);
#452=ORIENTED_EDGE('',*,*,#359,.T.);
#453=ORIENTED_EDGE('',*,*,#360,.T.);
#454=ORIENTED_EDGE('',*,*,#361,.F.);
#455=ORIENTED_EDGE('',*,*,#362,.T.);
#456=ORIENTED_EDGE('',*,*,#353,.F.);
#457=ORIENTED_EDGE('',*,*,#363,.T.);
#458=ORIENTED_EDGE('',*,*,#364,.F.);
#459=ORIENTED_EDGE('',*,*,#365,.F.);
#460=ORIENTED_EDGE('',*,*,#354,.F.);
#461=ORIENTED_EDGE('',*,*,#362,.F.);
#462=ORIENTED_EDGE('',*,*,#366,.F.);
#463=ORIENTED_EDGE('',*,*,#367,.T.);
#464=ORIENTED_EDGE('',*,*,#357,.F.);
#465=ORIENTED_EDGE('',*,*,#368,.T.);
#466=ORIENTED_EDGE('',*,*,#369,.F.);
#467=ORIENTED_EDGE('',*,*,#370,.F.);
#468=ORIENTED_EDGE('',*,*,#358,.F.);
#469=ORIENTED_EDGE('',*,*,#367,.F.);
#470=ORIENTED_EDGE('',*,*,#371,.F.);
#471=ORIENTED_EDGE('',*,*,#363,.F.);
#472=ORIENTED_EDGE('',*,*,#356,.F.);
#473=ORIENTED_EDGE('',*,*,#372,.T.);
#474=ORIENTED_EDGE('',*,*,#373,.F.);
#475=ORIENTED_EDGE('',*,*,#372,.F.);
#476=ORIENTED_EDGE('',*,*,#355,.F.);
#477=ORIENTED_EDGE('',*,*,#365,.T.);
#478=ORIENTED_EDGE('',*,*,#374,.F.);
#479=ORIENTED_EDGE('',*,*,#368,.F.);
#480=ORIENTED_EDGE('',*,*,#360,.F.);
#481=ORIENTED_EDGE('',*,*,#375,.T.);
#482=ORIENTED_EDGE('',*,*,#376,.F.);
#483=ORIENTED_EDGE('',*,*,#375,.F.);
#484=ORIENTED_EDGE('',*,*,#359,.F.);
#485=ORIENTED_EDGE('',*,*,#370,.T.);
#486=ORIENTED_EDGE('',*,*,#371,.T.);
#487=ORIENTED_EDGE('',*,*,#373,.T.);
#488=ORIENTED_EDGE('',*,*,#364,.T.);
#489=ORIENTED_EDGE('',*,*,#361,.T.);
#490=ORIENTED_EDGE('',*,*,#374,.T.);
#491=ORIENTED_EDGE('',*,*,#376,.T.);
#492=ORIENTED_EDGE('',*,*,#369,.T.);
#493=ORIENTED_EDGE('',*,*,#366,.T.);
#494=ORIENTED_EDGE('',*,*,#377,.F.);
#495=ORIENTED_EDGE('',*,*,#378,.T.);
#496=ORIENTED_EDGE('',*,*,#379,.F.);
#497=ORIENTED_EDGE('',*,*,#380,.T.);
#498=ORIENTED_EDGE('',*,*,#381,.F.);
#499=ORIENTED_EDGE('',*,*,#382,.F.);
#500=ORIENTED_EDGE('',*,*,#383,.T.);
#501=ORIENTED_EDGE('',*,*,#384,.T.);
#502=ORIENTED_EDGE('',*,*,#385,.F.);
#503=ORIENTED_EDGE('',*,*,#386,.T.);
#504=ORIENTED_EDGE('',*,*,#387,.T.);
#505=ORIENTED_EDGE('',*,*,#388,.F.);
#506=ORIENTED_EDGE('',*,*,#384,.F.);
#507=ORIENTED_EDGE('',*,*,#389,.T.);
#508=ORIENTED_EDGE('',*,*,#390,.F.);
#509=ORIENTED_EDGE('',*,*,#391,.T.);
#510=ORIENTED_EDGE('',*,*,#382,.T.);
#511=ORIENTED_EDGE('',*,*,#392,.F.);
#512=ORIENTED_EDGE('',*,*,#393,.F.);
#513=ORIENTED_EDGE('',*,*,#394,.T.);
#514=ORIENTED_EDGE('',*,*,#395,.F.);
#515=ORIENTED_EDGE('',*,*,#396,.F.);
#516=ORIENTED_EDGE('',*,*,#397,.F.);
#517=ORIENTED_EDGE('',*,*,#378,.F.);
#518=ORIENTED_EDGE('',*,*,#398,.F.);
#519=ORIENTED_EDGE('',*,*,#380,.F.);
#520=ORIENTED_EDGE('',*,*,#399,.F.);
#521=ORIENTED_EDGE('',*,*,#400,.F.);
#522=ORIENTED_EDGE('',*,*,#401,.F.);
#523=ORIENTED_EDGE('',*,*,#387,.F.);
#524=ORIENTED_EDGE('',*,*,#402,.T.);
#525=ORIENTED_EDGE('',*,*,#393,.T.);
#526=ORIENTED_EDGE('',*,*,#399,.T.);
#527=ORIENTED_EDGE('',*,*,#379,.T.);
#528=ORIENTED_EDGE('',*,*,#397,.T.);
#529=ORIENTED_EDGE('',*,*,#403,.T.);
#530=ORIENTED_EDGE('',*,*,#404,.F.);
#531=ORIENTED_EDGE('',*,*,#405,.F.);
#532=ORIENTED_EDGE('',*,*,#406,.T.);
#533=ORIENTED_EDGE('',*,*,#407,.T.);
#534=ORIENTED_EDGE('',*,*,#396,.T.);
#535=ORIENTED_EDGE('',*,*,#408,.T.);
#536=ORIENTED_EDGE('',*,*,#409,.F.);
#537=ORIENTED_EDGE('',*,*,#403,.F.);
#538=ORIENTED_EDGE('',*,*,#400,.T.);
#539=ORIENTED_EDGE('',*,*,#407,.F.);
#540=ORIENTED_EDGE('',*,*,#410,.T.);
#541=ORIENTED_EDGE('',*,*,#411,.T.);
#542=ORIENTED_EDGE('',*,*,#412,.F.);
#543=ORIENTED_EDGE('',*,*,#413,.T.);
#544=ORIENTED_EDGE('',*,*,#414,.T.);
#545=ORIENTED_EDGE('',*,*,#389,.F.);
#546=ORIENTED_EDGE('',*,*,#383,.F.);
#547=ORIENTED_EDGE('',*,*,#391,.F.);
#548=ORIENTED_EDGE('',*,*,#415,.T.);
#549=ORIENTED_EDGE('',*,*,#416,.F.);
#550=ORIENTED_EDGE('',*,*,#417,.F.);
#551=ORIENTED_EDGE('',*,*,#394,.F.);
#552=ORIENTED_EDGE('',*,*,#402,.F.);
#553=ORIENTED_EDGE('',*,*,#386,.F.);
#554=ORIENTED_EDGE('',*,*,#385,.T.);
#555=ORIENTED_EDGE('',*,*,#401,.T.);
#556=ORIENTED_EDGE('',*,*,#392,.T.);
#557=ORIENTED_EDGE('',*,*,#417,.T.);
#558=ORIENTED_EDGE('',*,*,#418,.F.);
#559=ORIENTED_EDGE('',*,*,#419,.F.);
#560=ORIENTED_EDGE('',*,*,#420,.T.);
#561=ORIENTED_EDGE('',*,*,#412,.T.);
#562=ORIENTED_EDGE('',*,*,#421,.T.);
#563=ORIENTED_EDGE('',*,*,#422,.T.);
#564=ORIENTED_EDGE('',*,*,#418,.T.);
#565=ORIENTED_EDGE('',*,*,#416,.T.);
#566=ORIENTED_EDGE('',*,*,#423,.F.);
#567=ORIENTED_EDGE('',*,*,#424,.T.);
#568=ORIENTED_EDGE('',*,*,#425,.T.);
#569=ORIENTED_EDGE('',*,*,#423,.T.);
#570=ORIENTED_EDGE('',*,*,#425,.F.);
#571=ORIENTED_EDGE('',*,*,#426,.T.);
#572=ORIENTED_EDGE('',*,*,#427,.T.);
#573=ORIENTED_EDGE('',*,*,#404,.T.);
#574=ORIENTED_EDGE('',*,*,#409,.T.);
#575=ORIENTED_EDGE('',*,*,#424,.F.);
#576=ORIENTED_EDGE('',*,*,#420,.F.);
#577=ORIENTED_EDGE('',*,*,#428,.F.);
#578=ORIENTED_EDGE('',*,*,#429,.F.);
#579=ORIENTED_EDGE('',*,*,#413,.F.);
#580=ORIENTED_EDGE('',*,*,#406,.F.);
#581=ORIENTED_EDGE('',*,*,#430,.F.);
#582=ORIENTED_EDGE('',*,*,#431,.F.);
#583=ORIENTED_EDGE('',*,*,#410,.F.);
#584=ORIENTED_EDGE('',*,*,#398,.T.);
#585=ORIENTED_EDGE('',*,*,#411,.F.);
#586=ORIENTED_EDGE('',*,*,#431,.T.);
#587=ORIENTED_EDGE('',*,*,#432,.F.);
#588=ORIENTED_EDGE('',*,*,#426,.F.);
#589=ORIENTED_EDGE('',*,*,#408,.F.);
#590=ORIENTED_EDGE('',*,*,#395,.T.);
#591=ORIENTED_EDGE('',*,*,#377,.T.);
#592=ORIENTED_EDGE('',*,*,#430,.T.);
#593=ORIENTED_EDGE('',*,*,#405,.T.);
#594=ORIENTED_EDGE('',*,*,#427,.F.);
#595=ORIENTED_EDGE('',*,*,#432,.T.);
#596=ORIENTED_EDGE('',*,*,#388,.T.);
#597=ORIENTED_EDGE('',*,*,#414,.F.);
#598=ORIENTED_EDGE('',*,*,#429,.T.);
#599=ORIENTED_EDGE('',*,*,#433,.F.);
#600=ORIENTED_EDGE('',*,*,#421,.F.);
#601=ORIENTED_EDGE('',*,*,#415,.F.);
#602=ORIENTED_EDGE('',*,*,#390,.T.);
#603=ORIENTED_EDGE('',*,*,#381,.T.);
#604=ORIENTED_EDGE('',*,*,#428,.T.);
#605=ORIENTED_EDGE('',*,*,#419,.T.);
#606=ORIENTED_EDGE('',*,*,#422,.F.);
#607=ORIENTED_EDGE('',*,*,#433,.T.);
#608=B_SPLINE_SURFACE_WITH_KNOTS('',3,1,((#926,#927),(#928,#929),(#930,
#931),(#932,#933),(#934,#935),(#936,#937),(#938,#939),(#940,#941),(#942,
#943),(#944,#945),(#946,#947),(#948,#949),(#950,#951),(#952,#953)),
 .UNSPECIFIED.,.F.,.F.,.F.,(4,2,2,2,2,2,4),(2,2),(0.,0.114050956110847,
0.226486077956547,0.338029746243469,0.452243805830242,0.561808030136118,
0.674148941126013),(0.,0.199999999999999),.UNSPECIFIED.);
#609=ADVANCED_FACE('',(#98),#608,.T.);
#610=ADVANCED_FACE('',(#99),#89,.T.);
#611=ADVANCED_FACE('',(#100),#35,.T.);
#612=ADVANCED_FACE('',(#101),#36,.F.);
#613=ADVANCED_FACE('',(#102,#12),#37,.F.);
#614=ADVANCED_FACE('',(#103),#38,.T.);
#615=ADVANCED_FACE('',(#104),#90,.T.);
#616=ADVANCED_FACE('',(#105),#39,.T.);
#617=ADVANCED_FACE('',(#106),#91,.F.);
#618=ADVANCED_FACE('',(#107),#92,.T.);
#619=ADVANCED_FACE('',(#108),#40,.T.);
#620=ADVANCED_FACE('',(#109),#93,.F.);
#621=ADVANCED_FACE('',(#110),#41,.T.);
#622=ADVANCED_FACE('',(#111,#13),#42,.T.);
#623=ADVANCED_FACE('',(#112),#43,.T.);
#624=ADVANCED_FACE('',(#113),#44,.T.);
#625=ADVANCED_FACE('',(#114),#45,.T.);
#626=ADVANCED_FACE('',(#115),#46,.T.);
#627=ADVANCED_FACE('',(#116),#47,.T.);
#628=ADVANCED_FACE('',(#117),#48,.T.);
#629=ADVANCED_FACE('',(#118),#49,.T.);
#630=ADVANCED_FACE('',(#119),#50,.T.);
#631=ADVANCED_FACE('',(#120),#51,.T.);
#632=ADVANCED_FACE('',(#121),#94,.F.);
#633=ADVANCED_FACE('',(#122),#52,.T.);
#634=ADVANCED_FACE('',(#123),#53,.T.);
#635=ADVANCED_FACE('',(#124),#54,.T.);
#636=ADVANCED_FACE('',(#125),#95,.T.);
#637=ADVANCED_FACE('',(#126,#14),#55,.T.);
#638=ADVANCED_FACE('',(#127),#11,.T.);
#639=ADVANCED_FACE('',(#128,#15),#56,.F.);
#640=ADVANCED_FACE('',(#129,#16),#57,.F.);
#641=ADVANCED_FACE('',(#130),#96,.F.);
#642=ADVANCED_FACE('',(#131),#58,.T.);
#643=ADVANCED_FACE('',(#132),#97,.T.);
#644=ADVANCED_FACE('',(#133),#59,.T.);
#645=CLOSED_SHELL('',(#609,#610,#611,#612));
#646=CLOSED_SHELL('',(#613,#614,#615,#616,#617,#618,#619,#620,#621,#622));
#647=CLOSED_SHELL('',(#623,#624,#625,#626,#627,#628,#629,#630,#631,#632,
#633,#634,#635,#636,#637,#638,#639,#640,#641,#642,#643,#644));
#648=DERIVED_UNIT_ELEMENT(#650,1.);
#649=DERIVED_UNIT_ELEMENT(#1181,-3.);
#650=(
MASS_UNIT()
NAMED_UNIT(*)
SI_UNIT(.KILO.,.GRAM.)
);
#651=DERIVED_UNIT((#648,#649));
#652=MEASURE_REPRESENTATION_ITEM('density measure',
POSITIVE_RATIO_MEASURE(7850.),#651);
#653=PROPERTY_DEFINITION_REPRESENTATION(#658,#655);
#654=PROPERTY_DEFINITION_REPRESENTATION(#659,#656);
#655=REPRESENTATION('material name',(#657),#1178);
#656=REPRESENTATION('density',(#652),#1178);
#657=DESCRIPTIVE_REPRESENTATION_ITEM('Steel','Steel');
#658=PROPERTY_DEFINITION('material property','material name',#1198);
#659=PROPERTY_DEFINITION('material property','density of part',#1198);
#660=AXIS2_PLACEMENT_3D('',#923,#729,#730);
#661=AXIS2_PLACEMENT_3D('',#924,#731,#732);
#662=AXIS2_PLACEMENT_3D('',#925,#733,#734);
#663=AXIS2_PLACEMENT_3D('',#998,#737,#738);
#664=AXIS2_PLACEMENT_3D('',#999,#739,#740);
#665=AXIS2_PLACEMENT_3D('',#1000,#741,#742);
#666=AXIS2_PLACEMENT_3D('',#1001,#743,#744);
#667=AXIS2_PLACEMENT_3D('',#1002,#745,#746);
#668=AXIS2_PLACEMENT_3D('',#1003,#747,#748);
#669=AXIS2_PLACEMENT_3D('',#1004,#749,#750);
#670=AXIS2_PLACEMENT_3D('',#1009,#752,#753);
#671=AXIS2_PLACEMENT_3D('',#1012,#755,#756);
#672=AXIS2_PLACEMENT_3D('',#1017,#758,#759);
#673=AXIS2_PLACEMENT_3D('',#1020,#761,#762);
#674=AXIS2_PLACEMENT_3D('',#1021,#763,#764);
#675=AXIS2_PLACEMENT_3D('',#1027,#768,#769);
#676=AXIS2_PLACEMENT_3D('',#1029,#770,#771);
#677=AXIS2_PLACEMENT_3D('',#1031,#773,#774);
#678=AXIS2_PLACEMENT_3D('',#1037,#778,#779);
#679=AXIS2_PLACEMENT_3D('',#1039,#780,#781);
#680=AXIS2_PLACEMENT_3D('',#1041,#783,#784);
#681=AXIS2_PLACEMENT_3D('',#1043,#785,#786);
#682=AXIS2_PLACEMENT_3D('',#1045,#788,#789);
#683=AXIS2_PLACEMENT_3D('',#1047,#791,#792);
#684=AXIS2_PLACEMENT_3D('',#1049,#793,#794);
#685=AXIS2_PLACEMENT_3D('',#1051,#796,#797);
#686=AXIS2_PLACEMENT_3D('',#1053,#799,#800);
#687=AXIS2_PLACEMENT_3D('',#1054,#801,#802);
#688=AXIS2_PLACEMENT_3D('',#1063,#807,#808);
#689=AXIS2_PLACEMENT_3D('',#1072,#813,#814);
#690=AXIS2_PLACEMENT_3D('',#1075,#815,#816);
#691=AXIS2_PLACEMENT_3D('',#1079,#819,#820);
#692=AXIS2_PLACEMENT_3D('',#1081,#821,#822);
#693=AXIS2_PLACEMENT_3D('',#1083,#824,#825);
#694=AXIS2_PLACEMENT_3D('',#1085,#826,#827);
#695=AXIS2_PLACEMENT_3D('',#1087,#829,#830);
#696=AXIS2_PLACEMENT_3D('',#1090,#831,#832);
#697=AXIS2_PLACEMENT_3D('',#1094,#835,#836);
#698=AXIS2_PLACEMENT_3D('',#1096,#837,#838);
#699=AXIS2_PLACEMENT_3D('',#1099,#840,#841);
#700=AXIS2_PLACEMENT_3D('',#1100,#842,#843);
#701=AXIS2_PLACEMENT_3D('',#1102,#844,#845);
#702=AXIS2_PLACEMENT_3D('',#1104,#846,#847);
#703=AXIS2_PLACEMENT_3D('',#1106,#849,#850);
#704=AXIS2_PLACEMENT_3D('',#1109,#853,#854);
#705=AXIS2_PLACEMENT_3D('',#1113,#856,#857);
#706=AXIS2_PLACEMENT_3D('',#1117,#859,#860);
#707=AXIS2_PLACEMENT_3D('',#1119,#862,#863);
#708=AXIS2_PLACEMENT_3D('',#1123,#866,#867);
#709=AXIS2_PLACEMENT_3D('',#1127,#870,#871);
#710=AXIS2_PLACEMENT_3D('',#1138,#878,#879);
#711=AXIS2_PLACEMENT_3D('',#1140,#880,#881);
#712=AXIS2_PLACEMENT_3D('',#1143,#883,#884);
#713=AXIS2_PLACEMENT_3D('',#1144,#885,#886);
#714=AXIS2_PLACEMENT_3D('',#1146,#887,#888);
#715=AXIS2_PLACEMENT_3D('',#1149,#890,#891);
#716=AXIS2_PLACEMENT_3D('',#1150,#892,#893);
#717=AXIS2_PLACEMENT_3D('',#1152,#894,#895);
#718=AXIS2_PLACEMENT_3D('',#1153,#896,#897);
#719=AXIS2_PLACEMENT_3D('',#1154,#898,#899);
#720=AXIS2_PLACEMENT_3D('',#1156,#900,#901);
#721=AXIS2_PLACEMENT_3D('',#1158,#903,#904);
#722=AXIS2_PLACEMENT_3D('',#1161,#906,#907);
#723=AXIS2_PLACEMENT_3D('',#1164,#909,#910);
#724=AXIS2_PLACEMENT_3D('',#1165,#911,#912);
#725=AXIS2_PLACEMENT_3D('',#1167,#914,#915);
#726=AXIS2_PLACEMENT_3D('',#1168,#916,#917);
#727=AXIS2_PLACEMENT_3D('',#1170,#919,#920);
#728=AXIS2_PLACEMENT_3D('',#1171,#921,#922);
#729=DIRECTION('axis',(0.,0.,1.));
#730=DIRECTION('refdir',(1.,0.,0.));
#731=DIRECTION('axis',(0.,0.,1.));
#732=DIRECTION('refdir',(1.,0.,0.));
#733=DIRECTION('axis',(0.,0.,1.));
#734=DIRECTION('refdir',(1.,0.,0.));
#735=DIRECTION('',(1.,0.,0.));
#736=DIRECTION('',(1.,0.,0.));
#737=DIRECTION('center_axis',(1.,0.,0.));
#738=DIRECTION('ref_axis',(0.,-4.82705662880505E-17,-1.));
#739=DIRECTION('center_axis',(1.,0.,0.));
#740=DIRECTION('ref_axis',(0.,-0.920261325587683,0.391304347826088));
#741=DIRECTION('center_axis',(1.,0.,0.));
#742=DIRECTION('ref_axis',(0.,-0.920261325587683,0.391304347826088));
#743=DIRECTION('center_axis',(1.,0.,0.));
#744=DIRECTION('ref_axis',(0.,1.,0.));
#745=DIRECTION('center_axis',(1.,0.,0.));
#746=DIRECTION('ref_axis',(0.,1.,0.));
#747=DIRECTION('',(0.,0.,1.));
#748=DIRECTION('',(1.,0.,0.));
#749=DIRECTION('center_axis',(1.,0.,0.));
#750=DIRECTION('ref_axis',(0.,1.,0.));
#751=DIRECTION('',(0.,-1.,0.));
#752=DIRECTION('center_axis',(-1.,0.,0.));
#753=DIRECTION('ref_axis',(0.,0.,1.));
#754=DIRECTION('',(0.,1.,0.));
#755=DIRECTION('center_axis',(-1.,0.,0.));
#756=DIRECTION('ref_axis',(0.,0.,-1.));
#757=DIRECTION('',(0.,1.,0.));
#758=DIRECTION('center_axis',(1.,0.,0.));
#759=DIRECTION('ref_axis',(0.,0.,-1.));
#760=DIRECTION('',(0.,-1.,0.));
#761=DIRECTION('center_axis',(1.,0.,0.));
#762=DIRECTION('ref_axis',(0.,0.,1.));
#763=DIRECTION('center_axis',(0.,0.,-1.));
#764=DIRECTION('ref_axis',(0.,-1.,0.));
#765=DIRECTION('',(0.,1.,0.));
#766=DIRECTION('',(-1.,0.,0.));
#767=DIRECTION('',(1.,0.,0.));
#768=DIRECTION('center_axis',(-1.,0.,0.));
#769=DIRECTION('ref_axis',(0.,0.,1.));
#770=DIRECTION('center_axis',(1.,0.,0.));
#771=DIRECTION('ref_axis',(0.,0.,1.));
#772=DIRECTION('',(1.,0.,0.));
#773=DIRECTION('center_axis',(0.,0.,1.));
#774=DIRECTION('ref_axis',(0.,1.,0.));
#775=DIRECTION('',(0.,-1.,0.));
#776=DIRECTION('',(-1.,0.,0.));
#777=DIRECTION('',(1.,0.,0.));
#778=DIRECTION('center_axis',(-1.,0.,0.));
#779=DIRECTION('ref_axis',(0.,0.,-1.));
#780=DIRECTION('center_axis',(-1.,0.,0.));
#781=DIRECTION('ref_axis',(0.,0.,-1.));
#782=DIRECTION('',(1.,0.,0.));
#783=DIRECTION('center_axis',(-1.,0.,0.));
#784=DIRECTION('ref_axis',(0.,0.,-1.));
#785=DIRECTION('center_axis',(1.,0.,0.));
#786=DIRECTION('ref_axis',(0.,0.,-1.));
#787=DIRECTION('',(1.,0.,0.));
#788=DIRECTION('center_axis',(0.,0.,1.));
#789=DIRECTION('ref_axis',(0.,1.,0.));
#790=DIRECTION('',(0.,-1.,0.));
#791=DIRECTION('center_axis',(-1.,0.,0.));
#792=DIRECTION('ref_axis',(0.,0.,1.));
#793=DIRECTION('center_axis',(-1.,0.,0.));
#794=DIRECTION('ref_axis',(0.,0.,1.));
#795=DIRECTION('',(1.,0.,0.));
#796=DIRECTION('center_axis',(0.,0.,-1.));
#797=DIRECTION('ref_axis',(0.,-1.,0.));
#798=DIRECTION('',(0.,1.,0.));
#799=DIRECTION('center_axis',(1.,0.,0.));
#800=DIRECTION('ref_axis',(0.,0.,-1.));
#801=DIRECTION('center_axis',(0.,0.,-1.));
#802=DIRECTION('ref_axis',(-1.,0.,0.));
#803=DIRECTION('',(-1.,0.,0.));
#804=DIRECTION('',(0.,-1.,0.));
#805=DIRECTION('',(1.,0.,0.));
#806=DIRECTION('',(0.,1.,0.));
#807=DIRECTION('center_axis',(0.,-1.,0.));
#808=DIRECTION('ref_axis',(-1.,0.,0.));
#809=DIRECTION('',(-1.,0.,0.));
#810=DIRECTION('',(0.,0.,-1.));
#811=DIRECTION('',(-1.,0.,0.));
#812=DIRECTION('',(0.,0.,-1.));
#813=DIRECTION('center_axis',(-1.,0.,0.));
#814=DIRECTION('ref_axis',(0.,1.,0.));
#815=DIRECTION('center_axis',(-1.,0.,0.));
#816=DIRECTION('ref_axis',(0.,0.,-1.));
#817=DIRECTION('',(0.,1.,0.));
#818=DIRECTION('',(0.,0.,-1.));
#819=DIRECTION('center_axis',(-1.,0.,0.));
#820=DIRECTION('ref_axis',(0.,1.,0.));
#821=DIRECTION('center_axis',(-1.,0.,0.));
#822=DIRECTION('ref_axis',(0.,0.,1.));
#823=DIRECTION('',(0.,1.,0.));
#824=DIRECTION('center_axis',(1.,0.,0.));
#825=DIRECTION('ref_axis',(0.,-1.,0.));
#826=DIRECTION('center_axis',(1.,0.,0.));
#827=DIRECTION('ref_axis',(0.,0.,1.));
#828=DIRECTION('',(0.,-1.,0.));
#829=DIRECTION('center_axis',(1.,0.,0.));
#830=DIRECTION('ref_axis',(0.,-1.,0.));
#831=DIRECTION('center_axis',(1.,0.,0.));
#832=DIRECTION('ref_axis',(0.,0.,-1.));
#833=DIRECTION('',(0.,0.,-1.));
#834=DIRECTION('',(0.,-1.,0.));
#835=DIRECTION('center_axis',(1.,0.,0.));
#836=DIRECTION('ref_axis',(0.,-1.,0.));
#837=DIRECTION('center_axis',(-1.,0.,0.));
#838=DIRECTION('ref_axis',(0.,0.,-1.));
#839=DIRECTION('',(0.,1.,0.));
#840=DIRECTION('center_axis',(-1.,0.,0.));
#841=DIRECTION('ref_axis',(0.,0.,1.));
#842=DIRECTION('center_axis',(-1.,0.,0.));
#843=DIRECTION('ref_axis',(0.,1.,0.));
#844=DIRECTION('center_axis',(1.,0.,0.));
#845=DIRECTION('ref_axis',(0.,0.,-1.));
#846=DIRECTION('center_axis',(1.,0.,0.));
#847=DIRECTION('ref_axis',(0.,0.,1.));
#848=DIRECTION('',(0.,-1.,0.));
#849=DIRECTION('center_axis',(0.,1.,0.));
#850=DIRECTION('ref_axis',(1.,0.,0.));
#851=DIRECTION('',(1.,0.,0.));
#852=DIRECTION('',(1.,0.,0.));
#853=DIRECTION('center_axis',(-1.,0.,0.));
#854=DIRECTION('ref_axis',(0.,0.,1.));
#855=DIRECTION('',(1.,0.,0.));
#856=DIRECTION('center_axis',(-1.,0.,0.));
#857=DIRECTION('ref_axis',(0.,0.,1.));
#858=DIRECTION('',(1.,0.,0.));
#859=DIRECTION('center_axis',(1.,0.,0.));
#860=DIRECTION('ref_axis',(0.,0.,1.));
#861=DIRECTION('',(1.,0.,0.));
#862=DIRECTION('center_axis',(0.,0.,-1.));
#863=DIRECTION('ref_axis',(0.,-1.,0.));
#864=DIRECTION('',(1.,0.,0.));
#865=DIRECTION('',(0.,1.,0.));
#866=DIRECTION('center_axis',(0.,0.,-1.));
#867=DIRECTION('ref_axis',(0.,-1.,0.));
#868=DIRECTION('',(0.,-1.,0.));
#869=DIRECTION('',(1.,0.,0.));
#870=DIRECTION('center_axis',(0.,0.,1.));
#871=DIRECTION('ref_axis',(0.,1.,0.));
#872=DIRECTION('',(1.,0.,0.));
#873=DIRECTION('',(0.,-1.,0.));
#874=DIRECTION('',(1.,0.,0.));
#875=DIRECTION('',(1.,0.,0.));
#876=DIRECTION('',(0.,-1.,0.));
#877=DIRECTION('',(1.,0.,0.));
#878=DIRECTION('center_axis',(-1.,0.,0.));
#879=DIRECTION('ref_axis',(0.,0.,-1.));
#880=DIRECTION('center_axis',(1.,0.,0.));
#881=DIRECTION('ref_axis',(0.,0.,-1.));
#882=DIRECTION('',(1.,0.,0.));
#883=DIRECTION('center_axis',(1.,0.,0.));
#884=DIRECTION('ref_axis',(0.,0.,-1.));
#885=DIRECTION('center_axis',(1.,0.,0.));
#886=DIRECTION('ref_axis',(0.,1.,0.));
#887=DIRECTION('center_axis',(1.,0.,0.));
#888=DIRECTION('ref_axis',(0.,0.,1.));
#889=DIRECTION('',(0.,1.,0.));
#890=DIRECTION('center_axis',(1.,0.,0.));
#891=DIRECTION('ref_axis',(0.,1.,0.));
#892=DIRECTION('center_axis',(1.,0.,0.));
#893=DIRECTION('ref_axis',(0.,0.,-1.));
#894=DIRECTION('center_axis',(-1.,0.,0.));
#895=DIRECTION('ref_axis',(0.,1.,0.));
#896=DIRECTION('center_axis',(0.,-1.,0.));
#897=DIRECTION('ref_axis',(0.,0.,1.));
#898=DIRECTION('center_axis',(1.,0.,0.));
#899=DIRECTION('ref_axis',(0.,1.,0.));
#900=DIRECTION('center_axis',(-1.,0.,0.));
#901=DIRECTION('ref_axis',(0.,0.,-1.));
#902=DIRECTION('',(0.,-1.,0.));
#903=DIRECTION('center_axis',(1.,0.,0.));
#904=DIRECTION('ref_axis',(0.,0.,-1.));
#905=DIRECTION('',(0.,1.,0.));
#906=DIRECTION('center_axis',(1.,0.,0.));
#907=DIRECTION('ref_axis',(0.,0.,1.));
#908=DIRECTION('',(0.,1.,0.));
#909=DIRECTION('center_axis',(1.,0.,0.));
#910=DIRECTION('ref_axis',(0.,0.,-1.));
#911=DIRECTION('center_axis',(-1.,0.,0.));
#912=DIRECTION('ref_axis',(0.,0.,-1.));
#913=DIRECTION('',(-1.,0.,0.));
#914=DIRECTION('center_axis',(0.,0.,1.));
#915=DIRECTION('ref_axis',(0.,1.,0.));
#916=DIRECTION('center_axis',(-1.,0.,0.));
#917=DIRECTION('ref_axis',(0.,0.,1.));
#918=DIRECTION('',(-1.,0.,0.));
#919=DIRECTION('center_axis',(0.,0.,-1.));
#920=DIRECTION('ref_axis',(0.,-1.,0.));
#921=DIRECTION('',(0.,0.,1.));
#922=DIRECTION('',(1.,0.,0.));
#923=CARTESIAN_POINT('',(0.,0.,0.));
#924=CARTESIAN_POINT('',(0.,0.,0.));
#925=CARTESIAN_POINT('',(0.,0.,0.));
#926=CARTESIAN_POINT('Ctrl Pts',(276.774112549603,-63.1591916814212,8.));
#927=CARTESIAN_POINT('Ctrl Pts',(278.774112549603,-63.1591916814212,8.));
#928=CARTESIAN_POINT('Ctrl Pts',(276.774112549603,-63.3079537980875,8.34985561351704));
#929=CARTESIAN_POINT('Ctrl Pts',(278.774112549603,-63.3079537980875,8.34985561351704));
#930=CARTESIAN_POINT('Ctrl Pts',(276.774112549603,-63.5246428121514,8.66675478378916));
#931=CARTESIAN_POINT('Ctrl Pts',(278.774112549603,-63.5246428121514,8.66675478378916));
#932=CARTESIAN_POINT('Ctrl Pts',(276.774112549603,-64.0648777382999,9.19410775139013));
#933=CARTESIAN_POINT('Ctrl Pts',(278.774112549603,-64.0648777382999,9.19410775139013));
#934=CARTESIAN_POINT('Ctrl Pts',(276.774112549603,-64.3816896067354,9.40095282048834));
#935=CARTESIAN_POINT('Ctrl Pts',(278.774112549603,-64.3816896067354,9.40095282048834));
#936=CARTESIAN_POINT('Ctrl Pts',(276.774112549603,-65.0740579013317,9.68029433681007));
#937=CARTESIAN_POINT('Ctrl Pts',(278.774112549603,-65.0740579013317,9.68029433681007));
#938=CARTESIAN_POINT('Ctrl Pts',(276.774112549603,-65.4425993783944,9.75120869165247));
#939=CARTESIAN_POINT('Ctrl Pts',(278.774112549603,-65.4425993783944,9.75120869165247));
#940=CARTESIAN_POINT('Ctrl Pts',(276.774112549603,-66.1951210584943,9.74873082772555));
#941=CARTESIAN_POINT('Ctrl Pts',(278.774112549603,-66.1951210584943,9.74873082772555));
#942=CARTESIAN_POINT('Ctrl Pts',(276.774112549603,-66.5718189616495,9.67186771967025));
#943=CARTESIAN_POINT('Ctrl Pts',(278.774112549603,-66.5718189616495,9.67186771967025));
#944=CARTESIAN_POINT('Ctrl Pts',(276.774112549603,-67.259075642806,9.38189141373287));
#945=CARTESIAN_POINT('Ctrl Pts',(278.774112549603,-67.259075642806,9.38189141373287));
#946=CARTESIAN_POINT('Ctrl Pts',(276.774112549603,-67.5654496228469,9.17709094725416));
#947=CARTESIAN_POINT('Ctrl Pts',(278.774112549603,-67.5654496228469,9.17709094725416));
#948=CARTESIAN_POINT('Ctrl Pts',(276.774112549603,-68.0917043982951,8.6572948217369));
#949=CARTESIAN_POINT('Ctrl Pts',(278.774112549603,-68.0917043982951,8.6572948217369));
#950=CARTESIAN_POINT('Ctrl Pts',(276.774112549603,-68.30416268052,8.34460998555096));
#951=CARTESIAN_POINT('Ctrl Pts',(278.774112549603,-68.30416268052,8.34460998555096));
#952=CARTESIAN_POINT('Ctrl Pts',(276.774112549603,-68.4506943035503,7.99999999999999));
#953=CARTESIAN_POINT('Ctrl Pts',(278.774112549603,-68.4506943035503,7.99999999999999));
#954=CARTESIAN_POINT('',(276.774112549603,-68.4506943035503,8.));
#955=CARTESIAN_POINT('',(276.774112549603,-63.1591916814212,8.));
#956=CARTESIAN_POINT('Ctrl Pts',(276.774112549603,-68.4506943035503,7.99999999999999));
#957=CARTESIAN_POINT('Ctrl Pts',(276.774112549603,-68.30416268052,8.34460998555096));
#958=CARTESIAN_POINT('Ctrl Pts',(276.774112549603,-68.0917043982951,8.6572948217369));
#959=CARTESIAN_POINT('Ctrl Pts',(276.774112549603,-67.8252845121224,8.92044497457944));
#960=CARTESIAN_POINT('Ctrl Pts',(276.774112549603,-67.5654496228469,9.17709094725416));
#961=CARTESIAN_POINT('Ctrl Pts',(276.774112549603,-67.259075642806,9.38189141373287));
#962=CARTESIAN_POINT('Ctrl Pts',(276.774112549603,-66.9225874730868,9.52386689265089));
#963=CARTESIAN_POINT('Ctrl Pts',(276.774112549603,-66.5718189616495,9.67186771967025));
#964=CARTESIAN_POINT('Ctrl Pts',(276.774112549603,-66.1951210584943,9.74873082772555));
#965=CARTESIAN_POINT('Ctrl Pts',(276.774112549603,-65.8144095904051,9.74998441448363));
#966=CARTESIAN_POINT('Ctrl Pts',(276.774112549603,-65.4425993783944,9.75120869165247));
#967=CARTESIAN_POINT('Ctrl Pts',(276.774112549603,-65.0740579013317,9.68029433681007));
#968=CARTESIAN_POINT('Ctrl Pts',(276.774112549603,-64.7292515947207,9.54117947947511));
#969=CARTESIAN_POINT('Ctrl Pts',(276.774112549603,-64.3816896067354,9.40095282048834));
#970=CARTESIAN_POINT('Ctrl Pts',(276.774112549603,-64.0648777382999,9.19410775139013));
#971=CARTESIAN_POINT('Ctrl Pts',(276.774112549603,-63.7966873917018,8.93231243177105));
#972=CARTESIAN_POINT('Ctrl Pts',(276.774112549603,-63.5246428121514,8.66675478378916));
#973=CARTESIAN_POINT('Ctrl Pts',(276.774112549603,-63.3079537980875,8.34985561351704));
#974=CARTESIAN_POINT('Ctrl Pts',(276.774112549603,-63.1591916814212,8.));
#975=CARTESIAN_POINT('',(278.774112549603,-68.4506943035503,8.));
#976=CARTESIAN_POINT('',(276.774112549603,-68.4506943035503,8.));
#977=CARTESIAN_POINT('',(278.774112549603,-63.1591916814212,8.));
#978=CARTESIAN_POINT('Ctrl Pts',(278.774112549603,-63.1591916814212,8.));
#979=CARTESIAN_POINT('Ctrl Pts',(278.774112549603,-63.3079537980875,8.34985561351704));
#980=CARTESIAN_POINT('Ctrl Pts',(278.774112549603,-63.5246428121514,8.66675478378916));
#981=CARTESIAN_POINT('Ctrl Pts',(278.774112549603,-63.7966873917018,8.93231243177105));
#982=CARTESIAN_POINT('Ctrl Pts',(278.774112549603,-64.0648777382999,9.19410775139013));
#983=CARTESIAN_POINT('Ctrl Pts',(278.774112549603,-64.3816896067354,9.40095282048834));
#984=CARTESIAN_POINT('Ctrl Pts',(278.774112549603,-64.7292515947207,9.54117947947511));
#985=CARTESIAN_POINT('Ctrl Pts',(278.774112549603,-65.0740579013317,9.68029433681007));
#986=CARTESIAN_POINT('Ctrl Pts',(278.774112549603,-65.4425993783944,9.75120869165247));
#987=CARTESIAN_POINT('Ctrl Pts',(278.774112549603,-65.8144095904051,9.74998441448363));
#988=CARTESIAN_POINT('Ctrl Pts',(278.774112549603,-66.1951210584943,9.74873082772555));
#989=CARTESIAN_POINT('Ctrl Pts',(278.774112549603,-66.5718189616495,9.67186771967025));
#990=CARTESIAN_POINT('Ctrl Pts',(278.774112549603,-66.9225874730868,9.52386689265089));
#991=CARTESIAN_POINT('Ctrl Pts',(278.774112549603,-67.259075642806,9.38189141373287));
#992=CARTESIAN_POINT('Ctrl Pts',(278.774112549603,-67.5654496228469,9.17709094725416));
#993=CARTESIAN_POINT('Ctrl Pts',(278.774112549603,-67.8252845121224,8.92044497457944));
#994=CARTESIAN_POINT('Ctrl Pts',(278.774112549603,-68.0917043982951,8.6572948217369));
#995=CARTESIAN_POINT('Ctrl Pts',(278.774112549603,-68.30416268052,8.34460998555096));
#996=CARTESIAN_POINT('Ctrl Pts',(278.774112549603,-68.4506943035503,7.99999999999999));
#997=CARTESIAN_POINT('',(276.774112549603,-63.1591916814212,8.));
#998=CARTESIAN_POINT('Origin',(276.774112549603,-65.8049429924858,6.875));
#999=CARTESIAN_POINT('Origin',(276.774112549603,-65.8049429924858,6.875));
#1000=CARTESIAN_POINT('Origin',(278.774112549603,-65.8049429924858,6.875));
#1001=CARTESIAN_POINT('Origin',(278.774112549603,-65.8049429924858,6.87720382415011));
#1002=CARTESIAN_POINT('Origin',(276.774112549603,-65.8049429924858,6.87720382415011));
#1003=CARTESIAN_POINT('',(0.,0.,0.));
#1004=CARTESIAN_POINT('Origin',(275.774112549603,-65.8049429924858,0.));
#1005=CARTESIAN_POINT('',(275.774112549603,-61.6098859849715,-21.));
#1006=CARTESIAN_POINT('',(275.774112549603,-70.,-21.));
#1007=CARTESIAN_POINT('',(275.774112549603,-70.,-21.));
#1008=CARTESIAN_POINT('',(275.774112549603,-70.,21.));
#1009=CARTESIAN_POINT('Origin',(275.774112549603,-70.,0.));
#1010=CARTESIAN_POINT('',(275.774112549603,-61.6098859849715,21.));
#1011=CARTESIAN_POINT('',(275.774112549603,-61.6098859849715,21.));
#1012=CARTESIAN_POINT('Origin',(275.774112549603,-61.6098859849715,0.));
#1013=CARTESIAN_POINT('',(275.774112549603,-70.,-11.));
#1014=CARTESIAN_POINT('',(275.774112549603,-61.6098859849715,-11.));
#1015=CARTESIAN_POINT('',(275.774112549603,-70.,-11.));
#1016=CARTESIAN_POINT('',(275.774112549603,-61.6098859849715,11.));
#1017=CARTESIAN_POINT('Origin',(275.774112549603,-61.6098859849715,0.));
#1018=CARTESIAN_POINT('',(275.774112549603,-70.,11.));
#1019=CARTESIAN_POINT('',(275.774112549603,-61.6098859849715,11.));
#1020=CARTESIAN_POINT('Origin',(275.774112549603,-70.,0.));
#1021=CARTESIAN_POINT('Origin',(301.174112549603,-61.6098859849715,-21.));
#1022=CARTESIAN_POINT('',(281.774112549603,-70.,-21.));
#1023=CARTESIAN_POINT('',(281.774112549603,-61.6098859849715,-21.));
#1024=CARTESIAN_POINT('',(281.774112549603,-63.7074144887286,-21.));
#1025=CARTESIAN_POINT('',(301.174112549603,-70.,-21.));
#1026=CARTESIAN_POINT('',(301.174112549603,-61.6098859849715,-21.));
#1027=CARTESIAN_POINT('Origin',(301.174112549603,-70.,0.));
#1028=CARTESIAN_POINT('',(281.774112549603,-70.,21.));
#1029=CARTESIAN_POINT('Origin',(281.774112549603,-70.,0.));
#1030=CARTESIAN_POINT('',(301.174112549603,-70.,21.));
#1031=CARTESIAN_POINT('Origin',(301.174112549603,-70.,-11.));
#1032=CARTESIAN_POINT('',(281.774112549603,-61.6098859849715,-11.));
#1033=CARTESIAN_POINT('',(281.774112549603,-70.,-11.));
#1034=CARTESIAN_POINT('',(281.774112549603,-67.9024714962429,-11.));
#1035=CARTESIAN_POINT('',(301.174112549603,-61.6098859849715,-11.));
#1036=CARTESIAN_POINT('',(301.174112549603,-70.,-11.));
#1037=CARTESIAN_POINT('Origin',(301.174112549603,-61.6098859849715,0.));
#1038=CARTESIAN_POINT('',(281.774112549603,-61.6098859849715,11.));
#1039=CARTESIAN_POINT('Origin',(281.774112549603,-61.6098859849715,0.));
#1040=CARTESIAN_POINT('',(301.174112549603,-61.6098859849715,11.));
#1041=CARTESIAN_POINT('Origin',(301.174112549603,-61.6098859849715,0.));
#1042=CARTESIAN_POINT('',(281.774112549603,-61.6098859849715,21.));
#1043=CARTESIAN_POINT('Origin',(281.774112549603,-61.6098859849715,0.));
#1044=CARTESIAN_POINT('',(301.174112549603,-61.6098859849715,21.));
#1045=CARTESIAN_POINT('Origin',(301.174112549603,-70.,21.));
#1046=CARTESIAN_POINT('',(281.774112549603,-67.9024714962429,21.));
#1047=CARTESIAN_POINT('Origin',(301.174112549603,-70.,0.));
#1048=CARTESIAN_POINT('',(281.774112549603,-70.,11.));
#1049=CARTESIAN_POINT('Origin',(281.774112549603,-70.,0.));
#1050=CARTESIAN_POINT('',(301.174112549603,-70.,11.));
#1051=CARTESIAN_POINT('Origin',(301.174112549603,-61.6098859849715,11.));
#1052=CARTESIAN_POINT('',(281.774112549603,-63.7074144887286,11.));
#1053=CARTESIAN_POINT('Origin',(281.774112549603,-65.8049429924858,0.));
#1054=CARTESIAN_POINT('Origin',(306.974112549603,-65.8049429924858,16.));
#1055=CARTESIAN_POINT('',(319.474112549603,-53.3636747337362,16.));
#1056=CARTESIAN_POINT('',(294.474112549603,-53.3636747337362,16.));
#1057=CARTESIAN_POINT('',(301.174112549603,-53.3636747337362,16.));
#1058=CARTESIAN_POINT('',(319.474112549603,-78.2462112512353,16.));
#1059=CARTESIAN_POINT('',(319.474112549603,-53.3049429924858,16.));
#1060=CARTESIAN_POINT('',(294.474112549603,-78.2462112512353,16.));
#1061=CARTESIAN_POINT('',(301.174112549603,-78.2462112512353,16.));
#1062=CARTESIAN_POINT('',(294.474112549603,-78.3049429924858,16.));
#1063=CARTESIAN_POINT('Origin',(319.474112549603,-78.3049429924858,21.));
#1064=CARTESIAN_POINT('',(319.474112549603,-78.3049429924858,19.2880253497231));
#1065=CARTESIAN_POINT('',(294.474112549603,-78.3049429924858,19.2880253497231));
#1066=CARTESIAN_POINT('',(301.174112549603,-78.3049429924858,19.2880253497231));
#1067=CARTESIAN_POINT('',(319.474112549603,-78.3049429924858,21.));
#1068=CARTESIAN_POINT('',(319.474112549603,-78.3049429924858,21.));
#1069=CARTESIAN_POINT('',(294.474112549603,-78.3049429924858,21.));
#1070=CARTESIAN_POINT('',(319.474112549603,-78.3049429924858,21.));
#1071=CARTESIAN_POINT('',(294.474112549603,-78.3049429924858,21.));
#1072=CARTESIAN_POINT('Origin',(294.474112549603,-78.3049429924858,21.));
#1073=CARTESIAN_POINT('',(294.474112549603,-61.6098859849715,21.));
#1074=CARTESIAN_POINT('',(294.474112549603,-53.3049429924858,19.2880253497231));
#1075=CARTESIAN_POINT('Origin',(294.474112549603,-61.6098859849715,0.));
#1076=CARTESIAN_POINT('',(294.474112549603,-53.3049429924858,21.));
#1077=CARTESIAN_POINT('',(294.474112549603,-78.3049429924858,21.));
#1078=CARTESIAN_POINT('',(294.474112549603,-53.3049429924858,21.));
#1079=CARTESIAN_POINT('Origin',(294.474112549603,-78.3049429924858,21.));
#1080=CARTESIAN_POINT('',(294.474112549603,-70.,21.));
#1081=CARTESIAN_POINT('Origin',(294.474112549603,-70.,0.));
#1082=CARTESIAN_POINT('',(294.474112549603,-78.3049429924858,21.));
#1083=CARTESIAN_POINT('Origin',(319.474112549603,-53.3049429924858,21.));
#1084=CARTESIAN_POINT('',(319.474112549603,-70.,21.));
#1085=CARTESIAN_POINT('Origin',(319.474112549603,-70.,0.));
#1086=CARTESIAN_POINT('',(319.474112549603,-53.3049429924858,21.));
#1087=CARTESIAN_POINT('Origin',(319.474112549603,-53.3049429924858,21.));
#1088=CARTESIAN_POINT('',(319.474112549603,-53.3049429924858,19.2880253497231));
#1089=CARTESIAN_POINT('',(319.474112549603,-61.6098859849715,21.));
#1090=CARTESIAN_POINT('Origin',(319.474112549603,-61.6098859849715,0.));
#1091=CARTESIAN_POINT('',(319.474112549603,-53.3049429924858,21.));
#1092=CARTESIAN_POINT('',(319.474112549603,-53.3049429924858,21.));
#1093=CARTESIAN_POINT('',(319.474112549603,-53.3049429924858,21.));
#1094=CARTESIAN_POINT('Origin',(319.474112549603,-53.3049429924858,21.));
#1095=CARTESIAN_POINT('',(319.474112549603,-61.6098859849715,18.));
#1096=CARTESIAN_POINT('Origin',(319.474112549603,-61.6098859849715,0.));
#1097=CARTESIAN_POINT('',(319.474112549603,-70.,18.));
#1098=CARTESIAN_POINT('',(319.474112549603,-57.4574144887286,18.));
#1099=CARTESIAN_POINT('Origin',(319.474112549603,-70.,0.));
#1100=CARTESIAN_POINT('Origin',(294.474112549603,-78.3049429924858,21.));
#1101=CARTESIAN_POINT('',(294.474112549603,-61.6098859849715,18.));
#1102=CARTESIAN_POINT('Origin',(294.474112549603,-61.6098859849715,0.));
#1103=CARTESIAN_POINT('',(294.474112549603,-70.,18.));
#1104=CARTESIAN_POINT('Origin',(294.474112549603,-70.,0.));
#1105=CARTESIAN_POINT('',(294.474112549603,-69.9574144887286,18.));
#1106=CARTESIAN_POINT('Origin',(294.474112549603,-53.3049429924858,21.));
#1107=CARTESIAN_POINT('',(301.174112549603,-53.3049429924858,19.2880253497231));
#1108=CARTESIAN_POINT('',(294.474112549603,-53.3049429924858,21.));
#1109=CARTESIAN_POINT('Origin',(301.174112549603,-70.,0.));
#1110=CARTESIAN_POINT('',(330.174112549603,-70.,18.));
#1111=CARTESIAN_POINT('',(301.174112549603,-70.,18.));
#1112=CARTESIAN_POINT('',(330.174112549603,-70.,-18.));
#1113=CARTESIAN_POINT('Origin',(330.174112549603,-70.,0.));
#1114=CARTESIAN_POINT('',(281.774112549603,-70.,-18.));
#1115=CARTESIAN_POINT('',(301.174112549603,-70.,-18.));
#1116=CARTESIAN_POINT('',(281.774112549603,-70.,18.));
#1117=CARTESIAN_POINT('Origin',(281.774112549603,-70.,0.));
#1118=CARTESIAN_POINT('',(301.174112549603,-70.,18.));
#1119=CARTESIAN_POINT('Origin',(301.174112549603,-61.6098859849715,18.));
#1120=CARTESIAN_POINT('',(330.174112549603,-61.6098859849715,18.));
#1121=CARTESIAN_POINT('',(301.174112549603,-61.6098859849715,18.));
#1122=CARTESIAN_POINT('',(330.174112549603,-63.7074144887286,18.));
#1123=CARTESIAN_POINT('Origin',(301.174112549603,-61.6098859849715,18.));
#1124=CARTESIAN_POINT('',(281.774112549603,-61.6098859849715,18.));
#1125=CARTESIAN_POINT('',(281.774112549603,-63.7074144887286,18.));
#1126=CARTESIAN_POINT('',(301.174112549603,-61.6098859849715,18.));
#1127=CARTESIAN_POINT('Origin',(301.174112549603,-70.,21.));
#1128=CARTESIAN_POINT('',(281.774112549603,-61.6098859849715,21.));
#1129=CARTESIAN_POINT('',(301.174112549603,-61.6098859849715,21.));
#1130=CARTESIAN_POINT('',(281.774112549603,-70.,21.));
#1131=CARTESIAN_POINT('',(281.774112549603,-67.9024714962429,21.));
#1132=CARTESIAN_POINT('',(301.174112549603,-70.,21.));
#1133=CARTESIAN_POINT('',(332.174112549603,-70.,21.));
#1134=CARTESIAN_POINT('',(301.174112549603,-70.,21.));
#1135=CARTESIAN_POINT('',(332.174112549603,-61.6098859849715,21.));
#1136=CARTESIAN_POINT('',(332.174112549603,-61.6098859849715,21.));
#1137=CARTESIAN_POINT('',(301.174112549603,-61.6098859849715,21.));
#1138=CARTESIAN_POINT('Origin',(301.174112549603,-61.6098859849715,0.));
#1139=CARTESIAN_POINT('',(332.174112549603,-61.6098859849715,-21.));
#1140=CARTESIAN_POINT('Origin',(332.174112549603,-61.6098859849715,-1.11022302462516E-15));
#1141=CARTESIAN_POINT('',(281.774112549603,-61.6098859849715,-21.));
#1142=CARTESIAN_POINT('',(301.174112549603,-61.6098859849715,-21.));
#1143=CARTESIAN_POINT('Origin',(281.774112549603,-61.6098859849715,0.));
#1144=CARTESIAN_POINT('Origin',(332.174112549603,-65.8049429924858,0.));
#1145=CARTESIAN_POINT('',(332.174112549603,-70.,-21.));
#1146=CARTESIAN_POINT('Origin',(332.174112549603,-70.,1.11022302462516E-15));
#1147=CARTESIAN_POINT('',(332.174112549603,-70.,-21.));
#1148=CARTESIAN_POINT('',(332.174112549603,-80.,-2.));
#1149=CARTESIAN_POINT('Origin',(332.174112549603,-80.,-5.));
#1150=CARTESIAN_POINT('Origin',(331.174112549603,-80.,-5.));
#1151=CARTESIAN_POINT('',(330.174112549603,-80.,-2.));
#1152=CARTESIAN_POINT('Origin',(330.174112549603,-80.,-5.));
#1153=CARTESIAN_POINT('Origin',(331.174112549603,-80.,-2.));
#1154=CARTESIAN_POINT('Origin',(330.174112549603,-65.8049429924858,0.));
#1155=CARTESIAN_POINT('',(330.174112549603,-61.6098859849715,-18.));
#1156=CARTESIAN_POINT('Origin',(330.174112549603,-61.6098859849715,0.));
#1157=CARTESIAN_POINT('',(330.174112549603,-67.9024714962429,-18.));
#1158=CARTESIAN_POINT('Origin',(281.774112549603,-65.8049429924858,0.));
#1159=CARTESIAN_POINT('',(281.774112549603,-70.,-21.));
#1160=CARTESIAN_POINT('',(281.774112549603,-63.7074144887286,-21.));
#1161=CARTESIAN_POINT('Origin',(281.774112549603,-70.,0.));
#1162=CARTESIAN_POINT('',(281.774112549603,-61.6098859849715,-18.));
#1163=CARTESIAN_POINT('',(281.774112549603,-67.9024714962429,-18.));
#1164=CARTESIAN_POINT('Origin',(281.774112549603,-61.6098859849715,0.));
#1165=CARTESIAN_POINT('Origin',(301.174112549603,-61.6098859849715,0.));
#1166=CARTESIAN_POINT('',(301.174112549603,-61.6098859849715,-18.));
#1167=CARTESIAN_POINT('Origin',(301.174112549603,-70.,-18.));
#1168=CARTESIAN_POINT('Origin',(301.174112549603,-70.,0.));
#1169=CARTESIAN_POINT('',(301.174112549603,-70.,-21.));
#1170=CARTESIAN_POINT('Origin',(301.174112549603,-61.6098859849715,-21.));
#1171=CARTESIAN_POINT('',(0.,0.,0.));
#1172=UNCERTAINTY_MEASURE_WITH_UNIT(LENGTH_MEASURE(0.01),#1180,
'DISTANCE_ACCURACY_VALUE',
'Maximum model space distance between geometric entities at asserted c
onnectivities');
#1173=UNCERTAINTY_MEASURE_WITH_UNIT(LENGTH_MEASURE(0.01),#1180,
'DISTANCE_ACCURACY_VALUE',
'Maximum model space distance between geometric entities at asserted c
onnectivities');
#1174=UNCERTAINTY_MEASURE_WITH_UNIT(LENGTH_MEASURE(0.01),#1180,
'DISTANCE_ACCURACY_VALUE',
'Maximum model space distance between geometric entities at asserted c
onnectivities');
#1175=UNCERTAINTY_MEASURE_WITH_UNIT(LENGTH_MEASURE(0.01),#1180,
'DISTANCE_ACCURACY_VALUE',
'Maximum model space distance between geometric entities at asserted c
onnectivities');
#1176=(
GEOMETRIC_REPRESENTATION_CONTEXT(3)
GLOBAL_UNCERTAINTY_ASSIGNED_CONTEXT((#1172))
GLOBAL_UNIT_ASSIGNED_CONTEXT((#1180,#1182,#1183))
REPRESENTATION_CONTEXT('','3D')
);
#1177=(
GEOMETRIC_REPRESENTATION_CONTEXT(3)
GLOBAL_UNCERTAINTY_ASSIGNED_CONTEXT((#1173))
GLOBAL_UNIT_ASSIGNED_CONTEXT((#1180,#1182,#1183))
REPRESENTATION_CONTEXT('','3D')
);
#1178=(
GEOMETRIC_REPRESENTATION_CONTEXT(3)
GLOBAL_UNCERTAINTY_ASSIGNED_CONTEXT((#1174))
GLOBAL_UNIT_ASSIGNED_CONTEXT((#1180,#1182,#1183))
REPRESENTATION_CONTEXT('','3D')
);
#1179=(
GEOMETRIC_REPRESENTATION_CONTEXT(3)
GLOBAL_UNCERTAINTY_ASSIGNED_CONTEXT((#1175))
GLOBAL_UNIT_ASSIGNED_CONTEXT((#1180,#1182,#1183))
REPRESENTATION_CONTEXT('','3D')
);
#1180=(
LENGTH_UNIT()
NAMED_UNIT(*)
SI_UNIT(.MILLI.,.METRE.)
);
#1181=(
LENGTH_UNIT()
NAMED_UNIT(*)
SI_UNIT($,.METRE.)
);
#1182=(
NAMED_UNIT(*)
PLANE_ANGLE_UNIT()
SI_UNIT($,.RADIAN.)
);
#1183=(
NAMED_UNIT(*)
SI_UNIT($,.STERADIAN.)
SOLID_ANGLE_UNIT()
);
#1184=SHAPE_DEFINITION_REPRESENTATION(#1187,#1192);
#1185=SHAPE_DEFINITION_REPRESENTATION(#1188,#1193);
#1186=SHAPE_DEFINITION_REPRESENTATION(#1189,#1194);
#1187=PRODUCT_DEFINITION_SHAPE('',$,#1196);
#1188=PRODUCT_DEFINITION_SHAPE('',$,#1197);
#1189=PRODUCT_DEFINITION_SHAPE('',$,#1198);
#1190=PRODUCT_DEFINITION_SHAPE($,$,#23);
#1191=PRODUCT_DEFINITION_SHAPE($,$,#24);
#1192=SHAPE_REPRESENTATION('',(#660,#728),#1176);
#1193=SHAPE_REPRESENTATION('',(#661,#668),#1177);
#1194=SHAPE_REPRESENTATION('',(#662),#1178);
#1195=PRODUCT_DEFINITION_CONTEXT('part definition',#1206,'design');
#1196=PRODUCT_DEFINITION('GNSSBuild','GNSSBuild v3',#1199,#1195);
#1197=PRODUCT_DEFINITION('Case v39','Case v39',#1200,#1195);
#1198=PRODUCT_DEFINITION('WeatherMag','WeatherMag',#1201,#1195);
#1199=PRODUCT_DEFINITION_FORMATION('',$,#1208);
#1200=PRODUCT_DEFINITION_FORMATION('',$,#1209);
#1201=PRODUCT_DEFINITION_FORMATION('',$,#1210);
#1202=PRODUCT_RELATED_PRODUCT_CATEGORY('GNSSBuild v3','GNSSBuild v3',(#1208));
#1203=PRODUCT_RELATED_PRODUCT_CATEGORY('Case v39','Case v39',(#1209));
#1204=PRODUCT_RELATED_PRODUCT_CATEGORY('WeatherMag','WeatherMag',(#1210));
#1205=APPLICATION_PROTOCOL_DEFINITION('international standard',
'automotive_design',2009,#1206);
#1206=APPLICATION_CONTEXT(
'Core Data for Automotive Mechanical Design Process');
#1207=PRODUCT_CONTEXT('part definition',#1206,'mechanical');
#1208=PRODUCT('GNSSBuild','GNSSBuild v3',$,(#1207));
#1209=PRODUCT('Case v39','Case v39',$,(#1207));
#1210=PRODUCT('WeatherMag','WeatherMag',$,(#1207));
#1211=PRESENTATION_STYLE_ASSIGNMENT((#1212));
#1212=SURFACE_STYLE_USAGE(.BOTH.,#1213);
#1213=SURFACE_SIDE_STYLE('',(#1214));
#1214=SURFACE_STYLE_FILL_AREA(#1215);
#1215=FILL_AREA_STYLE('Steel - Satin',(#1216));
#1216=FILL_AREA_STYLE_COLOUR('Steel - Satin',#1217);
#1217=COLOUR_RGB('Steel - Satin',0.627450980392157,0.627450980392157,0.627450980392157);
ENDSEC;
END-ISO-10303-21;
